HIERARCHY
ROOT Hips
{
 OFFSET 0.000000 0.000000 0.000000
 CHANNELS 6 Xposition Yposition Zposition Yrotation Xrotation Zrotation
 JOINT Chest
 {
  OFFSET 0.000000 9.585900 0.002600
  CHANNELS 3 Yrotation Xrotation Zrotation
  JOINT Chest2
  {
   OFFSET 0.000000 9.601200 -0.005300
   CHANNELS 3 Yrotation Xrotation Zrotation
   JOINT Chest3
   {
    OFFSET 0.000000 9.561800 0.000000
    CHANNELS 3 Yrotation Xrotation Zrotation
    JOINT Chest4
    {
     OFFSET 0.000000 9.552100 0.000000
     CHANNELS 3 Yrotation Xrotation Zrotation
     JOINT Neck
     {
      OFFSET 0.000000 14.453000 0.000000
      CHANNELS 3 Yrotation Xrotation Zrotation
      JOINT Head
      {
       OFFSET 0.000000 8.936500 -0.011300
       CHANNELS 3 Yrotation Xrotation Zrotation
       End Site
       {
        OFFSET 0.000000 17.073600 -0.006000
       }
      }
     }
     JOINT RightCollar
     {
      OFFSET -2.921100 9.558500 0.000000
      CHANNELS 3 Yrotation Xrotation Zrotation
      JOINT RightShoulder
      {
       OFFSET -13.519700 0.000000 0.000000
       CHANNELS 3 Yrotation Xrotation Zrotation
       JOINT RightElbow
       {
        OFFSET 0.000000 -29.696600 0.000000
        CHANNELS 3 Yrotation Xrotation Zrotation
        JOINT RightWrist
        {
         OFFSET 0.000000 -24.004700 0.000000
         CHANNELS 3 Yrotation Xrotation Zrotation
         End Site
         {
          OFFSET 0.000000 -17.728500 0.000000
         }
        }
       }
      }
     }
     JOINT LeftCollar
     {
      OFFSET 2.921100 9.558500 0.000000
      CHANNELS 3 Yrotation Xrotation Zrotation
      JOINT LeftShoulder
      {
       OFFSET 13.519700 0.000000 0.000000
       CHANNELS 3 Yrotation Xrotation Zrotation
       JOINT LeftElbow
       {
        OFFSET 0.000000 -29.696600 0.000000
        CHANNELS 3 Yrotation Xrotation Zrotation
        JOINT LeftWrist
        {
         OFFSET 0.000000 -24.004700 0.000000
         CHANNELS 3 Yrotation Xrotation Zrotation
         End Site
         {
          OFFSET 0.000000 -17.728500 0.000000
         }
        }
       }
      }
     }
    }
   }
  }
 }
 JOINT RightHip
 {
  OFFSET -7.771700 -0.012900 -0.001300
  CHANNELS 3 Yrotation Xrotation Zrotation
  JOINT RightKnee
  {
   OFFSET 0.000000 -40.869800 0.001200
   CHANNELS 3 Yrotation Xrotation Zrotation
   JOINT RightAnkle
   {
    OFFSET 0.000000 -39.717900 0.002100
    CHANNELS 3 Yrotation Xrotation Zrotation
    JOINT RightToe
    {
     OFFSET 0.000000 -4.965400 11.033500
     CHANNELS 3 Yrotation Xrotation Zrotation
     End Site
     {
      OFFSET 0.000000 -1.423100 5.872300
     }
    }
   }
  }
 }
 JOINT LeftHip
 {
  OFFSET 7.771700 -0.012900 -0.001300
  CHANNELS 3 Yrotation Xrotation Zrotation
  JOINT LeftKnee
  {
   OFFSET 0.000000 -40.869800 0.001200
   CHANNELS 3 Yrotation Xrotation Zrotation
   JOINT LeftAnkle
   {
    OFFSET 0.000000 -39.717900 0.002100
    CHANNELS 3 Yrotation Xrotation Zrotation
    JOINT LeftToe
    {
     OFFSET 0.000000 -4.965400 11.033500
     CHANNELS 3 Yrotation Xrotation Zrotation
     End Site
     {
      OFFSET 0.000000 -1.423100 5.872300
     }
    }
   }
  }
 }
}
MOTION
Frames: 16
Frame Time: 0.008333
-55.652372 57.857260 11.886337 179.319982 -52.775448 -3.861155 2.697108 22.562150 2.843195 1.370249 12.918595 1.465073 1.773715 16.163144 1.892847 1.374450 12.897671 1.463971 1.061903 16.918783 5.756664 -0.006639 -4.264659 10.285086 1.172633 5.450030 -1.061182 -12.495319 -12.981996 -3.769265 -41.996278 -24.732750 113.076499 1.190758 5.259670 16.955440 -8.863013 1.282729 -1.656417 3.815242 -13.509408 10.427963 52.021332 -32.969497 -114.789165 -1.241395 2.582650 -34.176828 5.353878 -18.442173 -2.807349 -30.335831 74.057959 -34.473296 6.874653 -14.049608 12.725414 0.047957 0.189813 -0.086420 -8.082784 -16.401661 4.931884 86.376497 81.002592 85.175266 0.548057 -21.229031 -18.524433 -0.034452 0.008011 -0.013324
-55.647057 57.859683 11.879108 179.324351 -52.785908 -3.861977 2.691385 22.558771 2.837786 1.373819 12.915398 1.465094 1.776337 16.158926 1.898126 1.374473 12.907610 1.462062 1.043843 16.881339 5.727142 -0.038838 -4.310485 10.248347 1.169082 5.451821 -1.061055 -12.418555 -12.993820 -3.781522 -41.940591 -24.760754 112.799870 1.010280 5.163633 16.384594 -8.861067 1.271687 -1.652475 3.806041 -13.513511 10.428997 51.756437 -32.867599 -114.524734 -1.226279 2.756586 -33.671792 5.331888 -18.433400 -2.811274 -30.393517 74.069023 -34.527941 6.870846 -14.097002 12.723795 0.058604 0.209666 -0.092124 -8.083600 -16.391502 4.927326 86.390930 81.003630 85.194771 0.549549 -21.225362 -18.526389 -0.041767 0.003401 -0.015529
-55.639783 57.860177 11.872572 179.296515 -52.787614 -3.851452 2.712096 22.546314 2.847199 1.376828 12.910657 1.464527 1.785908 16.132082 1.892967 1.375207 12.917857 1.466922 1.023194 16.863483 5.704240 -0.066556 -4.353659 10.209197 1.171990 5.448060 -1.057836 -12.406867 -12.962481 -3.784038 -41.834955 -24.808915 112.524798 0.819206 5.047018 15.788064 -8.864678 1.284224 -1.643573 3.799875 -13.500749 10.429270 51.502136 -32.750313 -114.288945 -1.225900 2.998462 -33.015575 5.325573 -18.432358 -2.801768 -30.439226 74.078957 -34.572878 6.865971 -14.206523 12.764366 0.048563 0.246916 -0.115491 -8.069899 -16.388579 4.937573 86.495743 81.002302 85.315105 0.540015 -21.237708 -18.532654 -0.030973 -0.004119 -0.020274
-55.635080 57.859666 11.865737 179.289139 -52.786769 -3.845036 2.716221 22.539158 2.845505 1.377899 12.907915 1.464037 1.788735 16.116680 1.888955 1.378879 12.904819 1.463470 1.008809 16.861538 5.690648 -0.091319 -4.406858 10.156106 1.176841 5.444267 -1.052675 -12.390468 -12.929310 -3.788493 -41.727589 -24.862738 112.233745 0.618384 4.909956 15.161440 -8.854677 1.279734 -1.634295 3.773410 -13.490911 10.440539 51.238251 -32.586320 -114.031430 -1.249077 3.299978 -32.194821 5.296537 -18.437482 -2.806240 -30.423024 74.094144 -34.576754 6.880963 -14.264287 12.775798 0.055104 0.176924 -0.081172 -8.064833 -16.389926 4.935374 86.541960 81.000962 85.368319 0.543654 -21.241766 -18.537794 -0.031696 -0.006271 -0.022232
-55.632387 57.859612 11.857776 179.290542 -52.793674 -3.837184 2.712029 22.540722 2.835806 1.378626 12.905082 1.463334 1.790851 16.107302 1.884932 1.379377 12.907609 1.465570 0.994866 16.826517 5.654938 -0.110503 -4.445910 10.108672 1.179307 5.389492 -1.071411 -12.338372 -12.878689 -3.789606 -41.630271 -24.900494 111.920406 0.407951 4.746714 14.492132 -8.819863 1.217886 -1.623672 3.720612 -13.437822 10.448464 50.982216 -32.422041 -113.761010 -1.286380 3.647783 -31.215746 5.244412 -18.443408 -2.827050 -30.363443 74.124909 -34.553049 6.920220 -14.312172 12.776498 0.025392 0.162197 -0.080933 -8.054295 -16.384438 4.920219 86.556105 80.997624 85.392197 0.529630 -21.248442 -18.538908 -0.016076 -0.007223 -0.017453
-55.628528 57.857764 11.850891 179.283161 -52.790423 -3.833164 2.717240 22.527646 2.832606 1.380904 12.886750 1.458139 1.792855 16.128502 1.895162 1.381320 12.898491 1.462362 0.980539 16.780922 5.606952 -0.124431 -4.472166 10.067152 1.178765 5.351924 -1.085887 -12.278375 -12.849560 -3.791008 -41.517217 -24.920729 111.595680 0.181168 4.561341 13.773302 -8.805011 1.193323 -1.620824 3.666643 -13.419791 10.472661 50.756920 -32.281319 -113.480682 -1.317522 4.028691 -30.090244 5.224156 -18.453351 -2.830118 -30.393745 74.144673 -34.591221 6.928908 -14.384356 12.793907 0.016373 0.161425 -0.083975 -8.047767 -16.387609 4.921002 86.593054 80.997411 85.439760 0.528966 -21.255322 -18.546468 -0.021466 -0.004426 -0.014133
-55.625618 57.856269 11.843461 179.271325 -52.792416 -3.823411 2.719919 22.519130 2.826674 1.385345 12.893007 1.461013 1.796379 16.110103 1.888828 1.385378 12.892969 1.461052 0.969510 16.762453 5.572627 -0.134569 -4.513012 10.012993 1.171273 5.339081 -1.093251 -12.212854 -12.838850 -3.793565 -41.389874 -24.921694 111.261287 -0.069635 4.364090 12.993490 -8.796633 1.179924 -1.617720 3.616853 -13.395566 10.503121 50.559010 -32.197599 -113.192213 -1.331753 4.419840 -28.846135 5.219488 -18.456003 -2.831432 -30.396323 74.177067 -34.597986 6.895124 -14.448440 12.812389 0.031524 0.140056 -0.073254 -8.037304 -16.387174 4.917416 86.646654 80.998300 85.503620 0.530464 -21.262330 -18.552877 -0.023269 -0.004678 -0.013008
-55.624026 57.853871 11.836560 179.253274 -52.789615 -3.803839 2.730820 22.506939 2.820512 1.388455 12.887903 1.459150 1.800068 16.103804 1.886589 1.388492 12.872177 1.445834 0.959345 16.758818 5.550922 -0.138393 -4.555183 9.956173 1.162227 5.341168 -1.086620 -12.092028 -12.871899 -3.800430 -41.282929 -24.883398 110.884651 -0.348740 4.151245 12.129399 -8.797701 1.181418 -1.604497 3.592052 -13.370353 10.534740 50.375321 -32.187878 -112.883391 -1.322770 4.794247 -27.527326 5.218477 -18.460335 -2.839970 -30.386366 74.203281 -34.597602 6.889254 -14.551761 12.850327 0.022990 0.170140 -0.090284 -8.020834 -16.393500 4.908027 86.696266 80.997666 85.563654 0.529600 -21.266462 -18.555349 -0.020897 -0.007722 -0.014781
-55.622758 57.852339 11.829082 179.249503 -52.793418 -3.795848 2.729373 22.502843 2.810493 1.390704 12.883629 1.455495 1.802830 16.098487 1.882085 1.390619 12.883821 1.455497 0.951998 16.723804 5.500661 -0.137076 -4.597735 9.895563 1.160587 5.310481 -1.103382 -11.998504 -12.888849 -3.803688 -41.133952 -24.849525 110.520030 -0.662699 3.915688 11.160298 -8.792760 1.145872 -1.612750 3.592339 -13.347471 10.572735 50.200576 -32.250966 -112.554090 -1.285156 5.138254 -26.169770 5.180855 -18.457493 -2.851290 -30.325104 74.227154 -34.567687 6.898571 -14.597008 12.854857 0.019182 0.147507 -0.079676 -8.006238 -16.388825 4.898426 86.703480 80.995778 85.585644 0.531739 -21.272280 -18.562598 -0.019622 -0.006177 -0.012883
-55.620525 57.850330 11.822282 179.244319 -52.793290 -3.793849 2.734184 22.492407 2.800827 1.396639 12.876366 1.448637 1.808340 16.099002 1.890010 1.393906 12.879609 1.451916 0.946837 16.705614 5.464314 -0.131806 -4.643037 9.831660 1.156501 5.293443 -1.102218 -11.916844 -12.900878 -3.810597 -40.954814 -24.807859 110.165492 -1.021154 3.654711 10.072495 -8.794711 1.147568 -1.602151 3.568248 -13.352921 10.666784 50.088713 -32.326047 -112.235157 -1.228182 5.451498 -24.787425 5.168801 -18.457967 -2.852441 -30.367668 74.241288 -34.617081 6.907255 -14.670748 12.868550 0.013516 0.153257 -0.076646 -8.000564 -16.388425 4.895803 86.762216 80.984913 85.661173 0.529835 -21.281818 -18.581130 -0.011733 -0.005726 -0.008908
-55.619714 57.848380 11.815590 179.247571 -52.793164 -3.790461 2.734100 22.491699 2.788139 1.396098 12.874420 1.451202 1.808001 16.090363 1.879753 1.403855 12.867680 1.424749 0.950398 16.692069 5.450687 -0.124625 -4.692521 9.766816 1.153991 5.296970 -1.065450 -11.829099 -12.936249 -3.826854 -40.768474 -24.754674 109.820799 -1.427363 3.368482 8.860394 -8.798273 1.157256 -1.567002 3.519471 -13.341077 10.725787 50.011642 -32.481268 -111.882572 -1.164344 5.744871 -23.387200 5.153736 -18.458170 -2.857635 -30.497267 74.256711 -34.754427 6.914323 -14.757376 12.879994 0.019167 0.185051 -0.077817 -7.999610 -16.387946 4.887817 86.784325 80.980498 85.690913 0.528775 -21.288858 -18.592955 -0.007492 -0.002991 -0.003959
-55.617816 57.846147 11.809545 179.251104 -52.789776 -3.793593 2.738824 22.489123 2.783147 1.395071 12.871676 1.453956 1.813806 16.085328 1.869364 1.404748 12.869061 1.431799 0.949573 16.678733 5.432761 -0.112469 -4.759924 9.667806 1.153556 5.283716 -1.061714 -11.738594 -12.975196 -3.844659 -40.578791 -24.693903 109.483496 -1.876208 3.056463 7.532701 -8.784791 1.097066 -1.560440 3.441798 -13.277532 10.787970 49.961465 -32.659170 -111.514601 -1.091995 6.030989 -21.973074 5.135362 -18.464079 -2.850940 -30.559316 74.265847 -34.832502 6.913635 -14.798632 12.887196 0.017983 0.187334 -0.072695 -8.003477 -16.389878 4.890197 86.797624 80.980999 85.710942 0.527120 -21.294082 -18.602907 -0.002364 -0.001490 -0.001809
-55.616038 57.843720 11.803972 179.254267 -52.784108 -3.795163 2.742840 22.484872 2.778542 1.399255 12.867959 1.446851 1.819720 16.080871 1.865327 1.404606 12.869733 1.441787 0.948808 16.640649 5.366901 -0.105288 -4.800023 9.612992 1.177248 5.211007 -1.074978 -11.669326 -12.954130 -3.857814 -40.383353 -24.625366 109.148867 -2.363981 2.718122 6.090788 -8.772398 1.061809 -1.541627 3.365977 -13.236440 10.835521 49.909831 -32.842695 -111.135725 -1.003434 6.306464 -20.524994 5.122059 -18.472178 -2.846080 -30.606922 74.275055 -34.893277 6.906236 -14.836109 12.895270 0.006379 0.166888 -0.061703 -8.008912 -16.394862 4.891124 86.806601 80.983168 85.723348 0.532644 -21.297346 -18.611756 -0.000883 0.000661 -0.000583
-55.615083 57.841429 11.798555 179.255547 -52.778918 -3.789721 2.744136 22.480710 2.769687 1.404708 12.865514 1.441577 1.823638 16.077000 1.861110 1.407821 12.866633 1.438581 0.947444 16.606088 5.312845 -0.094801 -4.836658 9.549994 1.184656 5.179006 -1.063528 -11.581846 -12.975875 -3.883084 -40.182917 -24.545052 108.823366 -2.888885 2.359158 4.508881 -8.765240 1.041129 -1.513525 3.293649 -13.207290 10.880303 49.836714 -33.019821 -110.751906 -0.888886 6.574260 -19.017523 5.112809 -18.478940 -2.844790 -30.660495 74.291206 -34.962219 6.894355 -14.897323 12.907804 0.006132 0.163588 -0.053936 -8.013065 -16.400776 4.885406 86.819976 80.983363 85.735116 0.531397 -21.295292 -18.612299 0.001887 -0.003313 -0.001924
-55.613562 57.839086 11.793587 179.251158 -52.772515 -3.782858 2.748123 22.473896 2.764875 1.409751 12.860566 1.432546 1.825778 16.073299 1.863338 1.410196 12.861881 1.435445 0.947632 16.601980 5.300015 -0.072017 -4.892253 9.432563 1.195984 5.151526 -1.056973 -11.489603 -12.999076 -3.912501 -39.977555 -24.454917 108.509776 -3.446424 1.977991 2.767064 -8.759908 1.033521 -1.495723 3.218475 -13.188559 10.928155 49.744344 -33.185357 -110.362892 -0.733206 6.851551 -17.449532 5.106700 -18.485635 -2.838076 -30.717926 74.305235 -35.035545 6.894703 -14.998320 12.915830 0.009374 0.154029 -0.034726 -8.014504 -16.407593 4.882834 86.840622 80.981110 85.756908 0.528728 -21.296851 -18.616681 -0.000507 -0.003425 -0.002102
-55.610776 57.837654 11.788451 179.250469 -52.771444 -3.786533 2.752210 22.473722 2.765626 1.413042 12.856416 1.428625 1.830566 16.068489 1.862560 1.412142 12.859080 1.432797 0.948406 16.596030 5.285775 -0.043403 -4.943481 9.309812 1.209573 5.120090 -1.049539 -11.393136 -13.024924 -3.945441 -39.763646 -24.362422 108.202865 -4.027249 1.565490 0.871154 -8.761643 1.038015 -1.480675 3.137128 -13.184724 10.981371 49.636823 -33.333818 -109.967756 -0.527222 7.141073 -15.824020 5.101542 -18.490460 -2.823206 -30.765161 74.309132 -35.090046 6.887529 -15.028551 12.917448 0.009281 0.134444 -0.026057 -8.017103 -16.408024 4.887714 86.875069 80.988166 85.794409 0.535661 -21.301022 -18.621183 -0.001036 -0.002471 -0.002186
